<svg width="512" height="512" viewBox="0 0 512 512" style="color:currentColor" xmlns="http://www.w3.org/2000/svg" class="h-full w-full"><rect width="512" height="512" x="0" y="0" rx="30" fill="transparent" stroke="transparent" stroke-width="0" stroke-opacity="100%" paint-order="stroke"></rect><svg width="256px" height="256px" viewBox="0 0 24 24" fill="currentColor" x="128" y="128" role="img" style="display:inline-block;vertical-align:middle" xmlns="http://www.w3.org/2000/svg"><g fill="currentColor"><g fill="none" stroke="currentColor" stroke-linecap="round" stroke-linejoin="round" stroke-width="1.5"><path d="M6.818 22v-2.857C6.662 17.592 5.633 16.416 4.682 15m9.772 7v-1.714c4.91 0 4.364-5.714 4.364-5.714s2.182 0 2.182-2.286l-2.182-3.428c0-4.572-3.709-6.816-7.636-6.857c-2.2-.023-3.957.53-5.27 1.499"/><path d="m13 7l2 2.5l-2 2.5M5 7L3 9.5L5 12m5-6l-2 7"/></g></g></svg></svg>