<svg width="512" height="512" viewBox="0 0 512 512" style="color:currentColor" xmlns="http://www.w3.org/2000/svg" class="h-full w-full"><rect width="512" height="512" x="0" y="0" rx="30" fill="transparent" stroke="transparent" stroke-width="0" stroke-opacity="100%" paint-order="stroke"></rect><svg width="256px" height="256px" viewBox="0 0 24 24" fill="currentColor" x="128" y="128" role="img" style="display:inline-block;vertical-align:middle" xmlns="http://www.w3.org/2000/svg"><g fill="currentColor"><path fill="none" stroke="currentColor" stroke-width="2" d="M16 12c2.374 1.183 4 3.65 4 7v4H4v-4c0-3.354 1.631-5.825 4-7m4 1a6 6 0 1 0 0-12a6 6 0 0 0 0 12Zm6-6c-1.5 0-3 .36-5-2c-2 2.36-4.5 3-7 2m1 6l5.025 5.257L17 13m-5 5v5"/></g></svg></svg>