<svg width="1200" height="800" viewBox="0 0 1200 800" fill="none" xmlns="http://www.w3.org/2000/svg" preserveAspectRatio="none">
<mask id="mask0_125_304" style="mask-type:luminance" maskUnits="userSpaceOnUse" x="0" y="0" width="1200" height="800">
<path d="M1200 0H0V800H1200V0Z" fill="white"/>
</mask>
<g mask="url(#mask0_125_304)">
<path d="M-100.1 684.5C-55.1001 573.5 67.2 496.1 190.4 500.7C289.1 504.4 388.1 555 482.5 526.3C551.4 505.3 600.5 445.8 633.3 383.6C666.1 321.4 687.1 253.6 724.2 193.7C761.3 133.8 819.9 80.3001 891.7 73.0001C952.4 66.9001 1010.7 94.6001 1063.8 123.4C1116.9 152.2 1171.7 183.7 1232.6 186.3" stroke="#283640" stroke-miterlimit="10"/>
<path d="M-101.3 680.8C-73.8 615.3 -17.9 563.4 46.7 535.2C85.7999 518.2 128 509.6 171.8 509.6C177.3 509.6 182.8 509.8 188.3 510C233.9 512.3 279.9 522.7 325 530.5C376.9 539.4 428.1 544.8 478.5 530.1C533 514.4 575.7 479.7 609 435.6C618.5 423 627.1 409.6 634.9 396C649.7 369.9 662.1 342.2 674.1 314.5C690.4 276.8 706.1 238.9 727.4 203.7C730.1 199.2 732.9 194.8 735.9 190.3C761.5 152 796.3 117.6 837.7 98.9002C856.5 90.4002 876.5 85.2002 897.4 83.8002C936.5 81.3002 974.6 92.5002 1011.4 107.6C1032.1 116.1 1052.2 125.7 1071.7 135.2C1088.9 143.6 1106.2 152 1123.7 159.5C1161.4 175.8 1199.9 188.3 1241.2 188" stroke="#263D47" stroke-miterlimit="10"/>
<path d="M-102.6 677.1C-74.5001 612.1 -16.7001 562.6 46.9999 538.3C85.4999 523.6 126.3 517.7 169.8 518.8C175.2 518.9 180.7 519.2 186.1 519.5C231.4 522.4 277.4 531.3 322.1 537.5C373.4 544.7 424.1 547.9 474.5 534C529.9 518.6 573.6 489.2 608.9 447C619 435 628.2 421.9 636.4 408.3C652 382.5 665.1 354.4 677.3 326.3C693.9 288.1 709.4 249.4 730.6 213.5C733.3 208.9 736.1 204.4 739.1 199.9C764.7 160.8 800.2 125.6 842.5 107.8C861.8 99.7002 882 95.2002 903.1 94.6002C942.5 93.4002 980.6 106 1018 121C1039 129.4 1059.7 138.5 1079.6 147.1C1097.2 154.7 1114.8 162.1 1132.4 168.6C1170.4 182.5 1208.8 192.3 1249.7 189.9" stroke="#24444F" stroke-miterlimit="10"/>
<path d="M-103.8 673.4C-75 609 -15.5 561.8 47.4 541.3C85.4 528.9 124.8 525.7 167.8 527.8C173.2 528.1 178.6 528.4 184 528.8C229 532.2 275.1 539.8 319.4 544.4C370.2 549.8 420.3 551.1 470.6 537.8C526.9 522.9 571.7 498.6 608.9 458.4C619.6 446.9 629.3 434.2 638 420.7C654.5 395.1 668.2 366.8 680.6 338.3C697.5 299.5 712.7 260.1 733.8 223.5C736.5 218.8 739.3 214.2 742.3 209.6C767.9 169.7 804.1 133.7 847.4 116.8C867.1 109.1 887.6 105.4 908.9 105.5C948.5 105.7 986.8 119.5 1024.8 134.4C1046.2 142.7 1067.3 151.2 1087.7 159C1105.6 165.8 1123.5 172.2 1141.4 177.6C1179.8 189.2 1218 196.2 1258.6 191.6" stroke="#224B56" stroke-miterlimit="10"/>
<path d="M-105.1 669.6C-75.6001 605.8 -14.3001 560.9 47.6999 544.3C85.1999 534.3 123.1 533.7 165.7 536.9C171 537.3 176.4 537.8 181.8 538.2C226.5 542.2 272.6 548.3 316.5 551.4C366.7 555.1 416.3 554.3 466.5 541.7C523.7 527.3 569.5 508.1 608.7 469.8C620 458.9 630.3 446.4 639.5 433.1C656.9 407.8 671.2 379.1 683.8 350.2C700.9 310.9 715.9 270.7 737 233.3C739.7 228.5 742.5 223.8 745.5 219.1C771.1 178.4 808 141.6 852.2 125.5C872.4 118.2 893.1 115.2 914.5 116.1C954.3 117.6 992.8 132.8 1031.4 147.5C1053.2 155.8 1074.8 163.7 1095.6 170.5C1113.9 176.6 1132.1 182 1150.1 186.3C1188.8 195.5 1226.9 199.7 1267.1 193.1" stroke="#20525D" stroke-miterlimit="10"/>
<path d="M-106.4 665.9C-76.2 602.6 -13.2 560.1 48 547.3C85 539.6 121.4 541.7 163.7 545.9C169 546.4 174.3 547 179.7 547.5C224.1 552.1 270.3 556.7 313.7 558.2C363.4 560.1 412.4 557.4 462.6 545.3C520.7 531.4 567.5 517.1 608.7 480.9C620.5 470.5 631.4 458.4 641.1 445.1C659.4 420.1 674.3 391.1 687.1 361.8C704.5 321.9 719.2 281 740.2 242.9C742.9 238 745.7 233.2 748.6 228.4C774.2 186.9 811.8 149.3 857 134.1C877.6 127.2 898.6 125 920.2 126.6C960.3 129.5 998.8 146 1038 160.5C1060.2 168.7 1082.2 176.1 1103.4 182C1122 187.3 1140.6 191.7 1158.7 194.9C1197.8 201.8 1235.7 203.2 1275.6 194.5" stroke="#1E5964" stroke-miterlimit="10"/>
<path d="M-107.6 662.2C-76.7001 599.5 -11.9001 559.2 48.2999 550.4C84.7999 545.1 119.8 549.8 161.6 555C166.8 555.7 172.1 556.3 177.5 556.9C221.6 562 267.8 565.2 310.8 565.2C360 565.4 408.5 560.6 458.5 549.2C517.5 535.8 565.3 526.6 608.6 492.4C621 482.6 632.4 470.7 642.6 457.6C661.7 432.9 677.3 403.5 690.3 373.8C708 333.4 722.4 291.7 743.4 252.9C746.1 247.9 748.9 243 751.8 238.2C777.4 195.9 815.7 157.5 861.8 143.2C882.9 136.7 904.1 135.3 925.8 137.6C966.1 141.9 1004.8 159.6 1044.6 174C1067.2 182.2 1089.7 188.9 1111.3 194C1130.3 198.5 1149.1 202 1167.5 204.1C1207 208.6 1244.6 207.3 1284.2 196.5" stroke="#1D616C" stroke-miterlimit="10"/>
<path d="M-108.9 658.5C-77.3 596.3 -10.8 558.4 48.6 553.4C84.5 550.4 118.1 557.8 159.5 564.1C164.7 564.9 170 565.6 175.3 566.3C219.1 572 265.4 573.7 308 572.2C356.6 570.5 404.6 563.9 454.6 553.1C514.5 540.2 563.4 536.1 608.6 503.8C621.6 494.5 633.6 483 644.2 470C664.2 445.5 680.4 415.8 693.6 385.8C711.6 344.8 725.7 302.4 746.6 262.9C749.3 257.8 752.1 252.8 755 247.9C780.6 204.8 819.6 165.6 866.7 152.2C888.2 146.1 909.7 145.4 931.6 148.5C972.1 154.2 1011 173.2 1051.4 187.5C1074.3 195.6 1097.3 201.8 1119.4 206C1138.8 209.8 1157.9 212.2 1176.4 213.2C1216.2 215.3 1253.7 211.2 1293 198.4" stroke="#1B6873" stroke-miterlimit="10"/>
<path d="M-110.1 654.8C-77.8001 593.2 -9.50006 557.6 48.9999 556.5C84.3999 555.8 116.6 565.9 157.6 573.2C162.8 574.1 168 575 173.2 575.7C216.7 582 263 582.2 305.2 579.1C353.3 575.6 400.7 567.1 450.6 556.9C511.4 544.5 561.3 545.4 608.5 515.2C622.1 506.5 634.6 495.3 645.7 482.3C666.6 458.1 683.3 428.1 696.7 397.6C715 356.1 728.8 312.8 749.6 272.7C752.3 267.6 755.1 262.5 758 257.4C783.7 213.5 823.4 173.4 871.3 161C893.3 155.3 915 155.4 937 159.2C977.7 166.3 1016.7 186.5 1057.7 200.7C1081 208.7 1104.4 214.3 1127 217.7C1146.7 220.7 1166.2 222.1 1184.8 222C1225 221.8 1262.3 214.9 1301.2 199.9" stroke="#196F7A" stroke-miterlimit="10"/>
<path d="M-111.4 651C-78.5 590 -8.40007 556.7 49.2999 559.4C84.1999 561.1 114.9 573.8 155.5 582.1C160.6 583.2 165.8 584.1 171 584.9C214.2 591.7 260.5 590.5 302.3 585.9C349.9 580.7 396.7 570.1 446.5 560.6C508.2 548.8 559.2 554.7 608.3 526.4C622.5 518.2 635.5 507.3 647.2 494.5C668.9 470.6 686.3 440.2 699.9 409.4C718.5 367.3 732 323.3 752.8 282.5C755.5 277.3 758.2 272.1 761.2 266.9C786.9 222.2 827.3 181.3 876.2 169.8C898.6 164.5 920.6 165.3 942.8 169.9C983.8 178.3 1022.9 199.9 1064.5 213.9C1088.2 221.9 1112.1 226.9 1135 229.4C1155.1 231.7 1174.8 232.1 1193.7 230.9C1234.2 228.3 1271.4 218.7 1309.9 201.6" stroke="#177682" stroke-miterlimit="10"/>
<path d="M-112.6 647.3C-79.0001 586.8 -7.20011 555.9 49.6999 562.4C84.0999 566.4 113.3 581.8 153.5 591.2C158.6 592.4 163.7 593.4 168.9 594.3C211.8 601.7 258.2 599 299.5 592.9C346.5 585.9 392.9 573.4 442.6 564.5C505.2 553.2 557.3 564.2 608.3 537.8C623.1 530.2 636.7 519.6 648.8 506.9C671.4 483.2 689.4 452.6 703.2 421.3C722 378.7 735.4 333.9 756 292.4C758.6 287.1 761.4 281.8 764.4 276.6C790.1 231.1 831.2 189.4 881 178.8C903.9 173.9 926.1 175.5 948.5 180.8C989.7 190.6 1029 213.4 1071.2 227.3C1095.3 235.2 1119.6 239.7 1143 241.3C1163.4 242.8 1183.5 242.2 1202.5 239.9C1243.4 235 1280.4 222.6 1318.6 203.4" stroke="#157D89" stroke-miterlimit="10"/>
<path d="M-113.9 643.6C-79.6 583.7 -6 555.1 50 565.5C83.9 571.8 111.7 589.9 151.5 600.3C156.5 601.6 161.6 602.8 166.8 603.7C209.4 611.7 255.8 607.6 296.8 599.8C343.3 591 389.1 576.7 438.7 568.3C502.2 557.6 555.3 573.6 608.4 549.2C623.8 542.1 637.9 531.8 650.5 519.2C673.9 495.8 692.6 464.8 706.6 433.2C725.7 390.1 738.8 344.5 759.4 302.2C762 296.8 764.8 291.4 767.8 286.1C793.5 239.8 835.3 197.3 886.1 187.5C909.4 183 931.9 185.3 954.4 191.4C995.8 202.5 1035.2 226.7 1078 240.5C1102.5 248.3 1127.3 252.2 1151.1 253C1171.9 253.7 1192.3 252.2 1211.4 248.8C1252.7 241.5 1289.5 226.3 1327.3 205.1" stroke="#138490" stroke-miterlimit="10"/>
<path d="M-115.1 639.9C-80.1001 580.6 -4.80013 554.3 50.2999 568.5C83.5999 577.2 110 597.9 149.4 609.3C154.4 610.8 159.4 612 164.6 613C206.9 621.5 253.4 616 293.9 606.7C339.8 596.2 385.1 579.9 434.7 572.1C499.2 562 553.3 583 608.3 560.5C624.2 554 638.9 544 652 531.5C676.3 508.4 695.6 477 709.8 445.1C729.2 401.4 742 355.1 762.5 312.1C765.1 306.6 767.9 301.1 770.9 295.7C796.6 248.6 839.1 205.3 890.8 196.4C914.6 192.3 937.3 195.4 960 202.2C1001.6 214.7 1041.2 240.2 1084.6 253.8C1109.4 261.6 1134.7 264.9 1159 264.8C1180.2 264.8 1200.8 262.2 1220.2 257.7C1261.8 248 1298.5 230.1 1336 206.7" stroke="#118B97" stroke-miterlimit="10"/>
<path d="M-116.4 636.1C-80.7 577.3 -3.60003 553.3 50.6 571.5C83.4 582.5 108.4 605.9 147.3 618.4C152.2 620 157.3 621.3 162.3 622.4C204.3 631.5 250.8 624.5 290.9 613.7C336.3 601.4 381.1 583.2 430.5 576C495.9 566.5 551 592.4 608 572C624.5 566.1 639.8 556.3 653.3 544C678.4 521.1 698.4 489.5 712.8 457.1C732.5 412.9 745 365.8 765.5 322.1C768.1 316.5 770.9 310.9 773.8 305.4C799.5 257.5 842.7 213.4 895.4 205.4C919.6 201.7 942.6 205.5 965.4 213.1C1007.3 226.9 1046.9 253.7 1091 267.2C1116.2 274.9 1142 277.7 1166.6 276.7C1188.1 275.9 1209.1 272.3 1228.6 266.8C1270.6 254.8 1307 234.1 1344.2 208.6" stroke="#0F929F" stroke-miterlimit="10"/>
<path d="M-117.7 632.4C-81.2999 574.2 -2.49992 552.5 50.9001 574.5C83.2001 587.9 106.7 613.9 145.3 627.4C150.2 629.1 155.2 630.6 160.2 631.7C201.9 641.4 248.5 632.9 288.1 620.6C333 606.6 377.2 586.4 426.6 579.8C492.9 570.9 549.1 601.8 608 583.3C625.1 577.9 640.9 568.5 655 556.2C681 533.6 701.6 501.6 716.2 468.9C736.2 424.1 748.4 376.3 768.8 331.9C771.4 326.2 774.2 320.5 777.1 315C802.8 266.3 846.7 221.4 900.3 214.3C925 211 948.2 215.5 971.2 223.9C1013.3 239 1053.1 267.2 1097.7 280.5C1123.3 288.1 1149.5 290.3 1174.6 288.5C1196.5 286.9 1217.8 282.4 1237.4 275.7C1279.7 261.3 1316 237.9 1352.8 210.3" stroke="#0D99A6" stroke-miterlimit="10"/>
<path d="M-118.9 628.7C-81.8 571 -1.20007 551.7 51.2999 577.6C83.0999 593.3 105.1 622 143.3 636.5C148.1 638.4 153.1 639.9 158.1 641.1C199.5 651.3 246.1 641.5 285.4 627.5C329.7 611.7 373.4 589.7 422.7 583.6C489.9 575.3 547.2 611.3 608 594.6C625.7 589.8 642 580.6 656.6 568.5C683.5 546.1 704.7 513.9 719.5 480.7C739.8 435.4 751.7 386.8 772.1 341.7C774.7 335.9 777.5 330.2 780.4 324.5C806.1 274.9 850.7 229.3 905.2 223.1C930.3 220.3 953.8 225.5 976.9 234.6C1019.2 251.1 1059.2 280.5 1104.4 293.8C1130.4 301.4 1157 303 1182.6 300.3C1204.8 298 1226.4 292.4 1246.3 284.6C1289 267.9 1325.1 241.6 1361.6 212" stroke="#0BA0AD" stroke-miterlimit="10"/>
<path d="M-120.2 625C-82.5 567.9 -0.0999641 550.9 51.6 580.6C82.9 598.6 103.5 630 141.2 645.6C146 647.6 150.9 649.2 155.9 650.5C197 661.3 243.7 650.1 282.5 634.5C326.3 617.1 369.5 593 418.6 587.5C486.7 579.8 545 620.8 607.9 606.1C626.2 601.9 643 593 658.1 581C685.8 558.8 707.7 526.3 722.7 492.8C743.2 446.9 754.9 397.6 775.2 351.8C777.8 345.9 780.6 340.1 783.5 334.3C809.2 283.9 854.5 237.5 910 232.2C935.5 229.8 959.3 235.7 982.6 245.6C1025.2 263.4 1065.2 294.2 1111.1 307.3C1137.5 314.8 1164.6 315.9 1190.6 312.3C1213.2 309.2 1235.1 302.7 1255.1 293.8C1298.2 274.7 1334.1 245.7 1370.2 214" stroke="#0AA8B5" stroke-miterlimit="10"/>
<path d="M-121.4 621.2C-83 564.7 1.20002 550 51.9 583.6C82.7 604 101.8 638 139.2 654.6C144 656.7 148.8 658.5 153.8 659.8C194.6 671.2 241.3 658.5 279.7 641.4C323 622.2 365.6 596.3 414.7 591.3C483.8 584.3 543.1 630.2 607.9 617.4C626.8 613.7 644.2 605.1 659.7 593.3C688.2 571.4 710.8 538.5 726 504.6C746.8 458.2 758.2 408.1 778.5 361.5C781.1 355.5 783.9 349.6 786.8 343.7C812.5 292.5 858.5 245.3 914.9 240.9C940.9 238.9 964.9 245.6 988.4 256.2C1031.2 275.4 1071.4 307.5 1117.8 320.4C1144.6 327.8 1172.1 328.3 1198.5 323.8C1221.5 319.9 1243.7 312.4 1263.8 302.4C1307.2 280.9 1343 249.2 1378.8 215.3" stroke="#08AFBC" stroke-miterlimit="10"/>
<path d="M-122.7 617.5C-83.6 561.5 2.30001 549.2 52.2 586.6C82.4 609.3 100.2 646 137.1 663.6C141.8 665.9 146.6 667.7 151.5 669.1C192 681 238.8 666.9 276.7 648.2C319.5 627.3 361.5 599.4 410.5 595C480.5 588.6 540.8 639.5 607.6 628.6C627.1 625.5 645 617.2 661 605.4C690.4 583.8 713.6 550.6 729 516.3C750.1 469.3 761.3 418.4 781.4 371.2C784 365.1 786.7 359.1 789.7 353.2C815.4 301.2 862.1 253.2 919.5 249.6C945.9 248 970.2 255.4 993.8 266.8C1036.8 287.3 1077.2 320.7 1124.2 333.5C1151.3 340.9 1179.4 340.8 1206.2 335.4C1229.5 330.8 1252 322.2 1272.4 311.2C1316.2 287.4 1351.8 252.9 1387.2 216.9" stroke="#06B6C3" stroke-miterlimit="10"/>
<path d="M-123.9 613.8C-84.1 558.4 3.59998 548.3 52.6 589.7C82.3 614.8 98.6 654.1 135.1 672.8C139.8 675.2 144.5 677.1 149.4 678.6C189.6 691.1 236.4 675.6 273.9 655.3C316.1 632.6 357.7 602.9 406.6 598.9C477.5 593.2 538.9 649 607.6 640.1C627.7 637.5 646.1 629.5 662.6 617.9C692.8 596.5 716.7 563 732.3 528.3C753.7 480.8 764.6 429.1 784.7 381.2C787.3 375 790 368.9 793 362.9C818.7 310.1 866.1 261.3 924.4 258.6C951.3 257.4 975.8 265.6 999.6 277.7C1042.9 299.6 1083.3 334.3 1131 346.9C1158.5 354.2 1187 353.6 1214.3 347.3C1238 341.9 1260.8 332.4 1281.3 320.2C1325.4 294 1360.8 256.7 1395.9 218.7" stroke="#04BDCA" stroke-miterlimit="10"/>
<path d="M-125.2 610.1C-84.7 555.3 4.70008 547.5 52.9001 592.7C82.1001 620.1 96.9 662.1 133.1 681.8C137.7 684.3 142.5 686.3 147.3 687.9C187.2 701 234 684 271.2 662.2C312.9 637.7 353.9 606.3 402.7 602.7C474.5 597.8 536.9 658.3 607.6 651.4C628.3 649.4 647.3 641.7 664.3 630.2C695.4 609.1 719.9 575.3 735.7 540.2C757.4 492.2 768 439.7 788 391.1C790.6 384.8 793.3 378.6 796.3 372.5C822 318.9 870.1 269.3 929.4 267.5C956.7 266.7 981.5 275.6 1005.4 288.5C1048.9 311.8 1089.5 347.7 1137.7 360.3C1165.6 367.5 1194.6 366.3 1222.3 359.2C1246.3 353.1 1269.5 342.5 1290.1 329.3C1334.6 300.8 1369.8 260.7 1404.6 220.6" stroke="#02C4D2" stroke-miterlimit="10"/>
<path d="M-126.4 606.4C-85.2 552.1 5.99993 546.7 53.2999 595.8C81.9999 625.5 95.4 670.2 131.1 691C173.3 715.5 227.2 695.5 268.4 669.3C309.6 643.1 350 609.7 398.7 606.7C471.4 602.3 534.9 667.9 607.6 663C667.7 658.9 714.2 607.1 739 552.3C763.8 497.5 773.8 436.7 799.5 382.3C825.3 327.9 874.1 277.5 934.2 276.6C1012.4 275.4 1068.6 354.5 1144.4 373.7C1197.2 387.1 1254 369.2 1298.9 338.3C1343.8 307.4 1378.8 264.6 1413.2 222.3" stroke="#00CBD9" stroke-miterlimit="10"/>
<path d="M-126 601.3C-83.9 547.4 7.00002 541.8 55.4 589.7C75.3 609.4 88.4999 635.9 105.8 657.7C114.1 668.1 123.3 677.4 134.7 684.2C144 689.8 153.9 693.2 164.1 695C200 701.1 240.1 685.3 272.6 665.4C277.1 662.7 281.6 659.8 286 657C323.2 633.1 360.4 606.3 404 603C459.5 599 510.1 634.9 563.1 650.7C578.9 655.4 595 658.3 611.5 657.6C670.6 655.3 716.3 608.4 741.9 557.3C747.8 545.5 753.1 533.4 758 521C774.2 479.6 786.1 435.3 806.3 394C813.9 378.5 823.3 363.3 834.1 349.3C860.8 315.1 896.6 289 938 286.7C959.7 285.5 979.7 290.7 999 299C1046.8 319.6 1090.2 359.7 1143.4 371.2C1195.4 382.5 1251.5 364.3 1296.3 334.1C1341.1 303.9 1376.8 262.7 1411.8 222.6" stroke="#02CDD5" stroke-miterlimit="10"/>
<path d="M-125.7 596.3C-82.6 542.8 7.90006 537.1 57.5001 583.8C77.9001 603 91.8001 629 109.4 650.8C117.8 661.2 127 670.6 138.4 677.6C147.6 683.3 157.5 687 167.7 689C203.6 696 244 681.1 277 661.7C281.5 659 286.1 656.3 290.6 653.5C328.3 630.1 365.8 603.3 409.5 599.5C464.5 594.7 515.2 628.7 567.8 644.7C583.5 649.5 599.3 652.6 615.5 652.5C673.6 652.1 718.3 610 745 562.7C751.1 551.8 756.7 540.5 762 528.8C779.4 489.9 792.6 446.8 813.3 406.1C821.1 390.8 830.5 375.7 841.2 361.9C867.5 327.8 902.1 301.3 942.1 297.4C963.1 295.4 982.4 299.4 1001.1 306.5C1047.5 323.9 1090.3 360 1142.7 369.3C1193.9 378.5 1249.2 359.9 1294 330.4C1338.8 300.9 1375.1 261.4 1410.7 223.4" stroke="#05CFD1" stroke-miterlimit="10"/>
<path d="M-125.3 591.2C-81.3 538.1 8.89997 532.2 59.6 577.8C80.5 596.6 95.1 622.1 113 643.9C121.5 654.3 130.7 663.8 142.1 671C151.3 676.9 161 680.8 171.2 683C207.1 690.9 247.8 676.9 281.3 658C285.9 655.4 290.5 652.7 295.1 650C333.3 627.1 371 600.3 414.9 595.9C469.5 590.5 520.3 622.3 572.4 638.5C588 643.4 603.6 646.8 619.5 647.2C676.6 648.6 720.5 611.4 748 567.9C754.4 557.9 760.2 547.4 765.8 536.4C784.4 499.9 798.9 458 820.1 417.9C828 402.8 837.4 387.9 848 374.1C873.9 340.2 907.3 313.2 945.8 307.7C966 304.9 984.7 307.8 1002.9 313.5C1048 327.7 1090.2 359.7 1141.7 366.9C1192 373.9 1246.7 355.1 1291.5 326.3C1336.3 297.5 1373.1 259.7 1409.4 223.8" stroke="#07D1CC" stroke-miterlimit="10"/>
<path d="M-124.9 586.2C-80 533.5 9.89993 527.4 61.7999 571.9C83.1999 590.2 98.5 615.2 116.7 637.1C125.3 647.5 134.6 657.1 145.8 664.5C154.9 670.5 164.6 674.7 174.8 677.1C210.7 685.9 251.7 672.7 285.7 654.4C290.4 651.9 295 649.2 299.7 646.5C338.3 624.1 376.4 597.3 420.4 592.4C474.5 586.3 525.4 616 577.1 632.5C592.5 637.4 607.9 641.1 623.5 642C679.6 645.3 722.6 612.8 751.1 573.2C757.7 564 763.9 554.4 769.8 544.1C789.7 510 805.5 469.4 827.1 429.9C835.2 415.1 844.6 400.2 855 386.5C880.5 352.7 912.8 325.3 949.8 318.1C969.2 314.4 987.3 316.2 1004.9 320.7C1048.6 331.7 1090.2 359.7 1140.9 364.7C1190.4 369.6 1244.3 350.5 1289.1 322.4C1333.9 294.3 1371.3 258.1 1408.2 224.4" stroke="#09D2C8" stroke-miterlimit="10"/>
<path d="M-124.5 581.2C-78.6 528.9 10.9 522.7 64 566C85.9 583.8 102 608.4 120.4 630.3C129.1 640.7 138.4 650.4 149.6 658C158.7 664.2 168.3 668.6 178.4 671.3C214.3 681 255.6 668.7 290.1 650.9C294.8 648.4 299.6 645.9 304.3 643.2C343.4 621.3 381.8 594.6 425.9 589C479.5 582.2 530.5 609.8 581.8 626.6C597.1 631.6 612.2 635.6 627.6 637C682.7 642.1 724.9 614.5 754.2 578.6C761 570.3 767.5 561.5 773.8 552C794.9 520.4 812 480.9 834.1 442C842.4 427.4 851.8 412.7 862 399C887.1 365.3 918.2 337.4 953.8 328.7C972.5 324.2 989.8 324.9 1006.9 328C1049.3 335.8 1090.2 359.8 1140.1 362.6C1188.8 365.4 1242 345.9 1286.7 318.5C1331.5 291.1 1369.5 256.6 1407 224.9" stroke="#0BD4C4" stroke-miterlimit="10"/>
<path d="M-124.1 576.1C-77.3001 524.3 11.8999 517.8 66.0999 560C88.4999 577.4 105.3 601.4 124 623.3C132.8 633.7 142.1 643.5 153.3 651.3C162.3 657.6 171.9 662.2 182 665.2C217.9 675.8 259.4 664.4 294.5 647.1C299.3 644.7 304.1 642.2 308.9 639.6C348.5 618.2 387.1 591.6 431.4 585.4C484.5 578 535.7 603.4 586.5 620.5C601.6 625.6 616.6 629.8 631.7 631.7C685.8 638.6 727.1 615.9 757.3 583.8C764.3 576.4 771.1 568.4 777.8 559.6C800.1 530.4 818.6 492.2 841.1 453.8C849.5 439.4 858.9 424.9 869 411.2C893.8 377.7 923.6 349.2 957.8 339C975.7 333.6 992.4 333.2 1008.9 335.1C1050 339.7 1090.2 359.7 1139.3 360.3C1187.2 361 1239.6 341.2 1284.3 314.5C1329.1 287.8 1367.6 254.9 1405.8 225.4" stroke="#0ED6C0" stroke-miterlimit="10"/>
<path d="M-123.7 571.1C-76 519.7 12.9 513 68.3 554.1C91.2 571 108.7 594.5 127.7 616.5C136.6 626.9 145.9 636.8 157 644.8C166 651.3 175.5 656.1 185.5 659.3C221.3 670.8 263.2 660.3 298.8 643.5C303.7 641.2 308.5 638.8 313.4 636.2C353.5 615.3 392.4 588.7 436.8 581.9C489.4 573.8 540.7 597.2 591 614.5C606 619.7 620.7 624.2 635.5 626.6C688.6 635.4 729.1 617.4 760.2 589.2C767.4 582.6 774.5 575.5 781.6 567.4C805.1 540.7 824.9 503.7 847.8 465.9C856.4 451.7 865.8 437.3 875.7 423.7C900.1 390.3 928.7 361.4 961.4 349.5C978.6 343.3 994.6 341.7 1010.5 342.3C1050.2 343.7 1089.8 359.7 1138.1 358.1C1185.2 356.7 1236.9 336.6 1281.5 310.6C1326.2 284.6 1365.4 253.4 1404.2 226" stroke="#10D8BB" stroke-miterlimit="10"/>
<path d="M-123.3 566C-74.6 515 13.9 508.1 70.4 548.1C93.8 564.6 112.1 587.6 131.3 609.6C140.3 619.9 149.7 630 160.7 638.1C169.6 644.7 179 649.8 189.1 653.3C224.9 665.7 267.1 656 303.2 639.8C308.1 637.6 313.1 635.2 317.9 632.7C358.5 612.3 397.7 585.8 442.2 578.3C494.4 569.6 545.7 590.8 595.6 608.4C610.4 613.6 625 618.4 639.5 621.4C691.6 632 731.3 618.9 763.2 594.5C770.6 588.8 778 582.5 785.5 575.2C810.2 550.9 831.3 515.1 854.7 477.9C863.4 464 872.9 449.7 882.6 436.1C906.6 402.8 934 373.5 965.3 360C981.7 352.9 997.1 350.3 1012.5 349.6C1050.9 347.8 1089.8 359.8 1137.3 356C1183.5 352.4 1234.5 332 1279.2 306.7C1323.9 281.4 1363.7 251.9 1403 226.6" stroke="#12DAB7" stroke-miterlimit="10"/>
<path d="M-122.9 561C-73.3 510.4 14.9 503.4 72.6 542.2C96.5 558.2 115.5 580.7 135 602.8C144.1 613.1 153.5 623.3 164.4 631.6C173.3 638.4 182.6 643.7 192.7 647.4C228.5 660.7 271 651.9 307.5 636.2C312.5 634 317.5 631.7 322.4 629.3C363.5 609.4 402.9 583 447.6 574.9C499.3 565.5 550.8 584.6 600.2 602.5C614.9 607.8 629.2 612.9 643.4 616.3C694.5 628.7 733.4 620.5 766.2 599.8C773.9 595 781.6 589.5 789.4 582.9C815.3 561 837.8 526.5 861.6 489.8C870.5 476.1 879.9 462 889.6 448.4C913.2 415.2 939.4 385.5 969.3 370.3C984.9 362.4 999.7 358.6 1014.5 356.6C1051.6 351.6 1089.9 359.5 1136.5 353.6C1181.9 347.9 1232.1 327.2 1276.8 302.6C1321.5 278 1361.8 250.1 1401.8 226.9" stroke="#15DCB3" stroke-miterlimit="10"/>
<path d="M-122.5 556C-71.9 505.8 16 498.6 74.7 536.2C99.1 551.8 118.8 573.8 138.6 595.8C147.9 606.1 157.2 616.4 168.1 624.9C176.9 631.8 186.2 637.3 196.2 641.3C232 655.5 274.8 647.6 311.8 632.4C316.9 630.3 321.9 628.1 326.9 625.7C368.5 606.3 408.2 580 453 571.2C504.2 561.2 555.8 578.1 604.8 596.3C619.4 601.7 633.4 607 647.4 611C697.5 625.3 735.6 621.8 769.2 605C777.1 601.1 785.1 596.4 793.3 590.5C820.4 571.1 844.2 537.7 868.5 501.7C877.6 488.2 887 474.2 896.5 460.8C919.7 427.8 944.7 397.6 973.2 380.8C988.1 372.1 1002.2 367.1 1016.4 363.9C1052.2 355.6 1089.8 359.6 1135.6 351.5C1180.2 343.7 1229.7 322.7 1274.3 298.7C1319 274.8 1359.9 248.6 1400.5 227.5" stroke="#17DEAF" stroke-miterlimit="10"/>
<path d="M-122.1 550.9C-70.6001 501.1 17 493.7 76.9 530.2C101.8 545.3 122.2 566.8 142.3 588.9C151.7 599.2 161 609.6 171.9 618.3C180.6 625.4 189.9 631.1 199.9 635.3C235.7 650.4 278.8 643.3 316.3 628.7C321.4 626.7 326.6 624.5 331.6 622.2C373.7 603.3 413.7 577.1 458.6 567.7C509.3 557.1 561.1 571.8 609.6 590.3C624 595.7 637.9 601.4 651.6 605.8C700.8 621.9 738 623.3 772.5 610.3C780.6 607.2 788.9 603.4 797.5 598.3C825.7 581.3 851 549.2 875.7 513.7C884.9 500.4 894.4 486.6 903.7 473.2C926.5 440.3 950.3 409.6 977.4 391.3C991.5 381.7 1005 375.7 1018.6 371.1C1053.1 359.6 1090 359.6 1135 349.3C1178.8 339.4 1227.5 318 1272.1 294.8C1316.8 271.6 1358.3 247 1399.5 228.1" stroke="#19DFAA" stroke-miterlimit="10"/>
<path d="M-121.7 545.9C-69.2999 496.5 18 489 79.1 524.3C104.5 538.9 125.7 560 146 582.1C155.5 592.4 164.9 602.9 175.6 611.8C184.3 619 193.5 625 203.4 629.5C239.2 645.6 282.6 639.3 320.6 625.2C325.8 623.3 331 621.2 336.1 618.9C378.6 600.5 418.9 574.4 464 564.3C514.3 553.1 566.1 565.7 614.2 584.3C628.5 589.8 642.1 595.7 655.5 600.7C703.7 618.7 740.1 624.9 775.4 615.6C783.8 613.4 792.3 610.4 801.3 606C830.7 591.4 857.3 560.5 882.5 525.7C891.9 512.7 901.3 499 910.5 485.6C932.9 452.8 955.5 421.7 981.1 401.7C994.4 391.3 1007.3 384.1 1020.3 378.3C1053.5 363.5 1089.7 359.6 1133.9 347.1C1176.9 335.1 1224.9 313.4 1269.5 290.9C1314.1 268.4 1356.3 245.5 1398.1 228.7" stroke="#1BE1A6" stroke-miterlimit="10"/>
<path d="M-121.3 540.8C-67.9 491.8 19 484.1 81.2 518.3C107.1 532.5 129 553 149.6 575.2C159.2 585.5 168.6 596.1 179.3 605.2C187.9 612.6 197 618.8 207 623.5C242.7 640.5 286.5 635.1 325 621.4C330.3 619.5 335.5 617.5 340.7 615.3C383.7 597.4 424.3 571.4 469.5 560.7C519.3 548.9 571.2 559.3 618.9 578.2C633 583.8 646.4 590 659.6 595.5C706.8 615.3 742.5 626.4 778.5 620.9C787.1 619.6 795.9 617.5 805.3 613.7C835.9 601.5 863.8 571.9 889.5 537.6C899.1 524.8 908.5 511.2 917.5 497.9C939.5 465.3 960.9 433.7 985.1 412.1C997.7 400.9 1009.9 392.5 1022.4 385.4C1054.3 367.3 1089.8 359.5 1133.2 344.8C1175.3 330.7 1222.6 308.6 1267.2 286.8C1311.8 265 1354.5 243.8 1397 229" stroke="#1EE3A2" stroke-miterlimit="10"/>
<path d="M-120.9 535.8C-66.6 487.2 20 479.3 83.4 512.4C109.8 526.1 132.4 546.2 153.3 568.3C163 578.6 172.4 589.3 183 598.6C191.6 606.1 200.6 612.6 210.6 617.5C246.3 635.4 290.4 630.9 329.4 617.7C334.7 615.9 340 613.9 345.3 611.8C388.8 594.3 429.7 568.5 475 557.1C524.3 544.7 576.4 552.9 623.6 572.1C637.6 577.8 650.8 584.2 663.6 590.2C709.8 611.8 744.7 627.9 781.6 626.1C790.4 625.7 799.5 624.4 809.2 621.4C841 611.6 870.3 583.2 896.3 549.5C906 536.9 915.5 523.5 924.3 510.2C945.9 477.7 966.1 445.7 988.9 422.5C1000.7 410.5 1012.2 400.9 1024.2 392.6C1054.8 371.3 1089.6 359.5 1132.2 342.6C1173.5 326.3 1220.1 304 1264.6 282.9C1309.2 261.8 1352.5 242.2 1395.6 229.6" stroke="#20E59E" stroke-miterlimit="10"/>
<path d="M-120.5 530.8C-65.2 482.6 21 474.5 85.5 506.5C112.4 519.8 135.8 539.3 156.9 561.5C166.7 571.8 176.2 582.6 186.7 592C195.2 599.7 204.2 606.4 214.1 611.5C249.8 630.3 294.1 626.6 333.7 614C339.1 612.3 344.5 610.4 349.8 608.3C393.8 591.3 435 565.6 480.4 553.6C529.3 540.6 581.4 546.6 628.2 566.1C642 571.8 655 578.6 667.6 585.1C712.8 608.6 746.9 629.5 784.6 631.5C793.7 632 803.1 631.5 813.1 629.2C846 621.8 876.7 594.7 903.2 561.6C913.1 549.2 922.6 536 931.2 522.7C952.5 490.3 971.4 457.9 992.8 433C1003.9 420.1 1014.7 409.4 1026.1 399.8C1055.3 375.2 1089.6 359.5 1131.3 340.4C1171.8 322 1217.6 299.4 1262.1 279C1306.7 258.6 1350.6 240.7 1394.3 230.2" stroke="#22E799" stroke-miterlimit="10"/>
<path d="M-120.1 525.7C-63.9001 477.9 21.9999 469.7 87.6999 500.5C115.1 513.3 139.2 532.3 160.6 554.6C170.5 564.9 180 575.8 190.5 585.4C199 593.2 207.9 600.1 217.8 605.6C253.5 625.3 298.1 622.5 338.2 610.4C343.7 608.7 349.1 606.9 354.5 604.9C399 588.4 440.4 562.9 486 550.1C534.4 536.5 586.7 540.4 633 560.1C646.7 565.9 659.5 572.9 671.8 579.9C716 605.2 749.3 631.1 787.9 636.7C797.2 638.1 806.9 638.4 817.3 636.8C851.4 631.8 883.5 606 910.4 573.4C920.4 561.3 929.9 548.1 938.5 534.9C959.4 502.7 977.1 469.8 997 443.3C1007.3 429.6 1017.5 417.7 1028.3 406.9C1056.2 379 1089.8 359.3 1130.7 338C1170.4 317.5 1215.5 294.5 1260 274.8C1304.6 255.1 1349 238.8 1393.4 230.5" stroke="#25E995" stroke-miterlimit="10"/>
<path d="M-119.7 520.7C-62.6 473.3 23.0001 464.9 89.9001 494.6C117.8 507 142.6 525.5 164.3 547.8C174.3 558.1 183.8 569.1 194.2 578.9C202.6 586.9 211.4 594 221.3 599.7C257 620.3 301.9 618.4 342.5 606.8C348 605.2 353.5 603.4 358.9 601.5C403.9 585.5 445.6 560.1 491.3 546.6C539.2 532.5 591.6 534.1 637.5 554.1C651 560 663.6 567.2 675.6 574.8C718.8 601.9 751.3 632.8 790.7 642.1C800.2 644.4 810.2 645.5 821 644.7C856.3 642.1 889.7 617.5 917.1 585.5C927.3 573.6 936.8 560.6 945.2 547.5C965.7 515.4 982.2 482.1 1000.7 454C1010.2 439.5 1019.8 426.4 1030 414.3C1056.5 383.1 1089.5 359.5 1129.6 336C1168.4 313.4 1212.8 290.1 1257.3 271.1C1301.8 252 1346.9 237.5 1391.8 231.3" stroke="#27EB91" stroke-miterlimit="10"/>
<path d="M-119.3 515.7C-61.2001 468.7 24 460.1 92 488.7C120.4 500.6 146 518.6 167.9 540.9C178 551.2 187.5 562.3 197.9 572.3C206.3 580.4 215 587.8 224.9 593.7C260.6 615.2 305.8 614.2 346.9 603.1C352.5 601.6 358.1 599.9 363.5 598C409 582.5 451 557.3 496.8 543.1C544.3 528.4 596.7 527.8 642.2 548.1C655.6 554.1 667.9 561.6 679.7 569.6C721.9 598.6 753.6 634.3 793.9 647.4C803.6 650.6 813.9 652.4 825.1 652.4C861.6 652.2 896.3 628.9 924.2 597.5C934.6 585.8 944.1 573 952.3 559.9C972.4 527.9 987.8 494.2 1004.8 464.4C1013.6 449.1 1022.4 434.8 1032.2 421.5C1057.4 387 1089.7 359.5 1129 333.8C1167 309.1 1210.7 285.5 1255.1 267.1C1299.6 248.7 1345.3 235.9 1390.8 231.7" stroke="#29EC8D" stroke-miterlimit="10"/>
<path d="M-118.9 510.6C-59.9 464 25 455.3 94.2 482.6C123.1 494 149.4 511.6 171.6 533.9C181.9 544.2 191.4 555.4 201.6 565.6C209.9 573.9 218.6 581.5 228.4 587.7C264 610.1 309.6 609.9 351.1 599.4C356.8 598 362.4 596.3 367.9 594.5C413.8 579.5 456.2 554.4 502.1 539.5C549.1 524.3 601.7 521.4 646.7 542C660 548 672.1 555.8 683.5 564.4C724.7 595.2 755.6 635.9 796.7 652.7C806.6 656.7 817.2 659.4 828.8 660.1C866.5 662.3 902.6 640.2 930.9 609.4C941.4 597.9 950.9 585.2 959 572.2C978.7 540.4 992.9 506.2 1008.5 474.8C1016.6 458.6 1024.7 443.2 1033.9 428.6C1057.7 390.8 1089.4 359.4 1127.9 331.5C1165.1 304.6 1208 280.7 1252.4 263.1C1296.9 245.4 1343.2 234.2 1389.3 232.2" stroke="#2BEE88" stroke-miterlimit="10"/>
<path d="M-118.5 505.6C-58.6 459.4 25.9999 450.5 96.2999 476.7C125.7 487.7 152.7 504.7 175.2 527.1C185.6 537.4 195.1 548.6 205.3 559.1C213.5 567.5 222.2 575.4 232 581.8C267.6 605.1 313.5 605.8 355.5 595.8C361.2 594.4 366.9 592.9 372.5 591.1C418.9 576.6 461.6 551.8 507.6 536.1C554.2 520.4 606.8 515.2 651.4 536.1C664.5 542.2 676.4 550.3 687.6 559.4C727.8 592.1 757.8 637.7 799.9 658.1C810.1 663.1 820.9 666.5 832.9 668C871.8 672.6 909.2 651.8 938 621.6C948.7 610.4 958.2 597.8 966.1 584.8C985.4 553.1 998.4 518.5 1012.6 485.5C1019.9 468.5 1027.3 451.9 1036 436.1C1058.3 395 1089.5 359.7 1127.2 329.6C1163.6 300.6 1205.8 276.4 1250.1 259.5C1294.6 242.5 1341.4 233 1388.2 233.1" stroke="#2EF084" stroke-miterlimit="10"/>
<path d="M-118.1 500.5C-31.7001 435.6 101.8 444.4 178.9 520.2C197.8 538.8 213.7 560.9 235.6 575.8C276.1 603.3 330.2 601.6 377.1 587.6C424 573.6 467 548.9 513.1 532.5C559.2 516.1 611.9 508.9 656.1 530C727.1 563.9 759.4 662.1 836.8 675.6C891.7 685.2 944.3 644.8 973 597C1001.7 549.2 1014 493.4 1037.8 443C1099.3 312.9 1243.2 226.6 1386.9 233.3" stroke="#30F280" stroke-miterlimit="10"/>
</g>
</svg>
