<!DOCTYPE svg PUBLIC "-//W3C//DTD SVG 1.1//EN" "http://www.w3.org/Graphics/SVG/1.1/DTD/svg11.dtd">
<!-- Uploaded to: SVG Repo, www.svgrepo.com, Transformed by: SVG Repo Mixer Tools -->
<svg width="800px" height="800px" viewBox="0 0 32 32" xmlns="http://www.w3.org/2000/svg" fill="#000000">
<g id="SVGRepo_bgCarrier" stroke-width="0"/>
<g id="SVGRepo_tracerCarrier" stroke-linecap="round" stroke-linejoin="round"/>
<g id="SVGRepo_iconCarrier"> <defs> <style>.cls-1{fill:#12DAB7;}.cls-2{fill:#d9dce1;}.cls-3{fill:#3aa190;}.cls-4{fill:#ffffff;}</style> </defs> <g id="organization"> <circle class="cls-1" cx="16" cy="16" r="16"/> <polygon class="cls-2" points="17 15 17 8 15 8 15 15 5 15 5 24 7 24 7 17 15 17 15 24 17 24 17 17 25 17 25 24 27 24 27 15 17 15"/> <rect class="cls-3" height="8" width="8" x="12" y="2"/> <rect class="cls-4" height="8" width="8" x="12" y="22"/> <rect class="cls-4" height="8" width="8" x="22" y="22"/> <rect class="cls-4" height="8" width="8" x="2" y="22"/> <path d="M27,22V15H17V10h3V2H12v8h3v5H5v7H2v8h8V22H7V17h8v5H12v8h8V22H17V17h8v5H22v8h8V22ZM14,8V4h4V8H14ZM8,24v4H4V24H8Zm10,0v4H14V24h4Zm10,4H24V24h4Z"/> </g> </g>
</svg>